<svg xmlns="http://www.w3.org/2000/svg" width="14" height="14" viewBox="0 0 14 14">
  <defs>
    <style>
      .cls-1 {
        fill: #fff;
        fill-rule: evenodd;
      }
    </style>
  </defs>
  <path id="Email_icon" data-name="Email icon" class="cls-1" d="M12.067,1.765A6.855,6.855,0,0,0,7.264,0a7.2,7.2,0,0,0-5.14,2.008A6.6,6.6,0,0,0,0,7.006a6.806,6.806,0,0,0,2.02,4.929A7.288,7.288,0,0,0,7.471,14a10.281,10.281,0,0,0,4.054-.843,0.854,0.854,0,0,0,.467-1.105h0a0.864,0.864,0,0,0-1.141-.463,8.6,8.6,0,0,1-3.383.737A5.219,5.219,0,0,1,3.4,10.738,5.364,5.364,0,0,1,1.956,7.014,5.281,5.281,0,0,1,3.5,3.139,5.134,5.134,0,0,1,7.29,1.585a5.057,5.057,0,0,1,3.5,1.277,4.129,4.129,0,0,1,1.426,3.213,3.6,3.6,0,0,1-.654,2.2,1.769,1.769,0,0,1-1.357.88,0.347,0.347,0,0,1-.38-0.406,7.44,7.44,0,0,1,.049-0.774l0.536-4.344H8.563l-0.118.426A2.4,2.4,0,0,0,6.9,3.49,2.965,2.965,0,0,0,4.622,4.541a3.873,3.873,0,0,0-.948,2.7,3.887,3.887,0,0,0,.841,2.608,2.567,2.567,0,0,0,2.026.991,2.3,2.3,0,0,0,1.809-.88,1.879,1.879,0,0,0,1.668.843,3.557,3.557,0,0,0,2.8-1.4A5.055,5.055,0,0,0,14,6.035,5.569,5.569,0,0,0,12.067,1.765ZM7.82,8.336a1.432,1.432,0,0,1-1.167.654,0.84,0.84,0,0,1-.743-0.48,2.3,2.3,0,0,1-.285-1.194,2.341,2.341,0,0,1,.4-1.422,1.189,1.189,0,0,1,.985-0.543,1.235,1.235,0,0,1,.908.405,1.481,1.481,0,0,1,.4,1.082A2.457,2.457,0,0,1,7.82,8.336Z"/>
</svg>
