<svg xmlns="http://www.w3.org/2000/svg" viewBox="0 0 62.58 62.58"><defs><style>.cls-1,.cls-2{fill:#fff;}.cls-1{opacity:0.1;}</style></defs><title>Asset 4</title><g id="Layer_2" data-name="Layer 2"><g id="Layer_1-2" data-name="Layer 1"><circle id="back" class="cls-1" cx="31.29" cy="31.29" r="31.29"/><path class="cls-2" d="M36.74,16.19H33c-4.24,0-7,2.81-7,7.16v3.3H22.19a.59.59,0,0,0-.59.59V32a.59.59,0,0,0,.59.59H26V44.69a.59.59,0,0,0,.59.59h4.95a.59.59,0,0,0,.59-.59V32.62h4.44a.59.59,0,0,0,.59-.59V27.24a.6.6,0,0,0-.17-.42.59.59,0,0,0-.42-.17H32.12v-2.8c0-1.35.32-2,2.07-2h2.54a.59.59,0,0,0,.59-.59V16.79a.59.59,0,0,0-.59-.59Zm0,0"/></g></g></svg>