<svg xmlns="http://www.w3.org/2000/svg" width="16" height="15" viewBox="0 0 16 15">
  <defs>
    <style>
      .cls-1 {
        fill: #fff;
        fill-rule: evenodd;
        opacity: 0.3;
      }
    </style>
  </defs>
  <path id="Linkedin" class="cls-1" d="M16,9.2V15H12.571V9.584c0-1.36-.5-2.289-1.737-2.289a1.873,1.873,0,0,0-1.76,1.231,2.264,2.264,0,0,0-.114.821V15H5.529s0.046-9.171,0-10.121H8.96V6.313l-0.023.033H8.96V6.313A3.417,3.417,0,0,1,12.051,4.64C14.308,4.64,16,6.086,16,9.2ZM1.941,0A1.775,1.775,0,0,0,0,1.747,1.762,1.762,0,0,0,1.9,3.5H1.918a1.775,1.775,0,0,0,1.94-1.75A1.767,1.767,0,0,0,1.941,0ZM0.2,15H3.633V4.878H0.2V15Z"/>
</svg>
