<svg xmlns="http://www.w3.org/2000/svg" viewBox="0 0 62.58 62.58"><defs><style>.cls-1,.cls-2{fill:#fff;}.cls-1{opacity:0.1;isolation:isolate;}</style></defs><title>twitter</title><g id="Layer_2" data-name="Layer 2"><g id="Layer_1-2" data-name="Layer 1"><circle id="back" class="cls-1" cx="31.29" cy="31.29" r="31.29"/><path id="Twitter" class="cls-2" d="M48.81,20.42a14.36,14.36,0,0,1-4.13,1.13,7.21,7.21,0,0,0,3.16-4,14.4,14.4,0,0,1-4.57,1.74A7.2,7.2,0,0,0,31,25.88a20.41,20.41,0,0,1-14.82-7.51A7.2,7.2,0,0,0,18.43,28a7.16,7.16,0,0,1-3.26-.9v.09a7.19,7.19,0,0,0,5.77,7,7.21,7.21,0,0,1-3.25.12,7.2,7.2,0,0,0,6.72,5,14.43,14.43,0,0,1-8.93,3.08,14.62,14.62,0,0,1-1.71-.1,20.35,20.35,0,0,0,11,3.23c13.22,0,20.46-11,20.46-20.46v-.93A14.6,14.6,0,0,0,48.81,20.42Z"/></g></g></svg>