<svg xmlns="http://www.w3.org/2000/svg" viewBox="0 0 62.58 62.58"><defs><style>.cls-1,.cls-2{fill:#fff;}.cls-1{opacity:0.1;}</style></defs><title>Asset 2</title><g id="Layer_2" data-name="Layer 2"><g id="Layer_1-2" data-name="Layer 1"><circle id="back" class="cls-1" cx="31.29" cy="31.29" r="31.29"/><path class="cls-2" d="M37.62,18h-12a7.39,7.39,0,0,0-7.38,7.38v12a7.39,7.39,0,0,0,7.38,7.38h12A7.39,7.39,0,0,0,45,37.41v-12A7.39,7.39,0,0,0,37.62,18Zm5,19.37a5,5,0,0,1-5,5h-12a5,5,0,0,1-5-5v-12a5,5,0,0,1,5-5h12a5,5,0,0,1,5,5Zm0,0"/><path class="cls-2" d="M31.62,24.52a6.89,6.89,0,1,0,6.89,6.89,6.9,6.9,0,0,0-6.89-6.89Zm0,11.41a4.52,4.52,0,1,1,4.52-4.52,4.52,4.52,0,0,1-4.52,4.52Zm0,0"/><path class="cls-2" d="M38.81,22.51A1.74,1.74,0,1,0,40,23a1.75,1.75,0,0,0-1.23-.51Zm0,0"/></g></g></svg>