<svg xmlns="http://www.w3.org/2000/svg" viewBox="0 0 62.58 62.58"><defs><style>.cls-1,.cls-2{fill:#fff;}.cls-1{opacity:0.1;}.cls-2{fill-rule:evenodd;}</style></defs><title>Asset 1</title><g id="Layer_2" data-name="Layer 2"><g id="Layer_1-2" data-name="Layer 1"><circle id="back" class="cls-1" cx="31.29" cy="31.29" r="31.29"/><path id="Behance" class="cls-2" d="M23.75,32.5H18.14v5.92h5.52c1.9,0,3.4-.6,3.4-2.84S25.79,32.5,23.75,32.5ZM23,23.88H18.14v5h5.25c1.66,0,2.92-.75,2.92-2.56C26.31,24.3,24.73,23.88,23,23.88ZM32,35.66c0,4.37-3.75,6.24-7.67,6.24H13.77V20.25H24c4.13,0,6.95,1.46,6.95,5.48a4.74,4.74,0,0,1-3,4.49A5.25,5.25,0,0,1,32,35.66Zm5.15-14h8.71v2.9H37.13ZM41,29.12c-2.74,0-3.53,1.53-3.59,2.72h7C44.08,29.68,43.13,29.12,41,29.12Zm-3.59,5.54c.12,2.71,1.46,4.44,3.86,4.44a4.12,4.12,0,0,0,3.61-2.38h3.8a7.58,7.58,0,0,1-7.55,5.61c-5,0-8.08-3.37-8.08-8.2a7.9,7.9,0,0,1,8.08-8.23c5.36,0,7.95,4,7.64,8.76Z"/></g></g></svg>