<svg xmlns="http://www.w3.org/2000/svg" width="16" height="16" viewBox="0 0 16 16">
  <defs>
    <style>
      .cls-1 {
        fill: #fff;
        fill-rule: evenodd;
        opacity: 0.3;
      }
    </style>
  </defs>
  <path id="Instagram" class="cls-1" d="M14.113,0H1.943A2.056,2.056,0,0,0,0,2.029v12.18A1.851,1.851,0,0,0,1.943,16h12.17A1.8,1.8,0,0,0,16,14.209V2.029A2.008,2.008,0,0,0,14.113,0ZM13.736,2.285a0.549,0.549,0,0,1,.549.549V4.593a0.549,0.549,0,0,1-.549.549H11.978a0.549,0.549,0,0,1-.549-0.549V2.834a0.549,0.549,0,0,1,.549-0.549h1.759Zm-5.69,2.79a3.063,3.063,0,1,1-3.07,3.063A3.067,3.067,0,0,1,8.046,5.074ZM14.286,13.8a0.538,0.538,0,0,1-.508.485H2.315a0.639,0.639,0,0,1-.6-0.485V6.856H3.363A5.9,5.9,0,0,0,3.19,8.137a4.857,4.857,0,0,0,9.713,0,5.932,5.932,0,0,0-.172-1.281h1.555V13.8Z"/>
</svg>
