<svg xmlns="http://www.w3.org/2000/svg" width="12" height="11" viewBox="0 0 12 11">
  <defs>
    <style>
      .cls-1 {
        fill: #fff;
        fill-rule: evenodd;
      }
    </style>
  </defs>
  <path id="Phone_icon" data-name="Phone icon" class="cls-1" d="M11.729,8.7L9.876,6.991a1.026,1.026,0,0,0-1.362.024l-0.933.86L7.4,7.78a9.317,9.317,0,0,1-2.245-1.5A8.655,8.655,0,0,1,3.525,4.212C3.49,4.154,3.457,4.1,3.424,4.046L4.051,3.47l0.308-.284A0.84,0.84,0,0,0,4.384,1.93L2.531,0.223A1.024,1.024,0,0,0,1.169.247l-0.522.484L0.661,0.744A2.713,2.713,0,0,0,.039,2.152c-0.245,1.869.682,3.577,3.2,5.894,3.477,3.2,6.278,2.961,6.4,2.949a3.354,3.354,0,0,0,.772-0.179,3.086,3.086,0,0,0,.756-0.395l0.011,0.009L11.7,9.954A0.842,0.842,0,0,0,11.729,8.7Z"/>
</svg>
